<!-- assets/icons/icons.svg — sprite ikon, dipakai lewat <svg class="icon"><use href="assets/icons/icons.svg#icon-calendar"/></svg> -->
<svg xmlns="http://www.w3.org/2000/svg" style="display:none">

  <symbol id="icon-calendar" viewBox="0 0 24 24">
    <rect x="3" y="5" width="18" height="16" rx="2"/>
    <path d="M3 10h18M8 3v4M16 3v4"/>
  </symbol>

  <symbol id="icon-book" viewBox="0 0 24 24">
    <path d="M4 5.5C4 4.7 4.7 4 5.5 4H12v16H5.5A1.5 1.5 0 0 1 4 18.5v-13Z"/>
    <path d="M20 5.5c0-.8-.7-1.5-1.5-1.5H12v16h6.5a1.5 1.5 0 0 0 1.5-1.5v-13Z"/>
  </symbol>

  <symbol id="icon-check" viewBox="0 0 24 24">
    <path d="M20 6 9 17l-5-5"/>
  </symbol>

  <symbol id="icon-clock" viewBox="0 0 24 24">
    <circle cx="12" cy="12" r="9"/>
    <path d="M12 7v5l3 3"/>
  </symbol>

  <symbol id="icon-gear" viewBox="0 0 24 24">
    <circle cx="12" cy="12" r="3"/>
    <path d="M19.4 15a1.7 1.7 0 0 0 .3 1.9l.1.1a2 2 0 1 1-2.8 2.8l-.1-.1a1.7 1.7 0 0 0-1.9-.3 1.7 1.7 0 0 0-1 1.5V21a2 2 0 1 1-4 0v-.1a1.7 1.7 0 0 0-1-1.6 1.7 1.7 0 0 0-1.9.3l-.1.1a2 2 0 1 1-2.8-2.8l.1-.1a1.7 1.7 0 0 0 .3-1.9 1.7 1.7 0 0 0-1.5-1H3a2 2 0 1 1 0-4h.1a1.7 1.7 0 0 0 1.6-1 1.7 1.7 0 0 0-.3-1.9l-.1-.1a2 2 0 1 1 2.8-2.8l.1.1a1.7 1.7 0 0 0 1.9.3H9a1.7 1.7 0 0 0 1-1.5V3a2 2 0 1 1 4 0v.1a1.7 1.7 0 0 0 1 1.5 1.7 1.7 0 0 0 1.9-.3l.1-.1a2 2 0 1 1 2.8 2.8l-.1.1a1.7 1.7 0 0 0-.3 1.9V9a1.7 1.7 0 0 0 1.5 1H21a2 2 0 1 1 0 4h-.1a1.7 1.7 0 0 0-1.5 1Z"/>
  </symbol>

  <symbol id="icon-chart" viewBox="0 0 24 24">
    <path d="M4 20V10M10 20V4M16 20v-7M22 20H2"/>
  </symbol>

  <symbol id="icon-user" viewBox="0 0 24 24">
    <circle cx="12" cy="8" r="4"/>
    <path d="M4 20c0-4 3.6-6 8-6s8 2 8 6"/>
  </symbol>

  <symbol id="icon-folder" viewBox="0 0 24 24">
    <path d="M3 7a2 2 0 0 1 2-2h4l2 2h8a2 2 0 0 1 2 2v8a2 2 0 0 1-2 2H5a2 2 0 0 1-2-2V7Z"/>
  </symbol>

  <symbol id="icon-sun" viewBox="0 0 24 24">
    <circle cx="12" cy="12" r="4"/>
    <path d="M12 2v2M12 20v2M4.9 4.9l1.4 1.4M17.7 17.7l1.4 1.4M2 12h2M20 12h2M4.9 19.1l1.4-1.4M17.7 6.3l1.4-1.4"/>
  </symbol>

  <symbol id="icon-moon" viewBox="0 0 24 24">
    <path d="M20 14.5A8.5 8.5 0 1 1 9.5 4a7 7 0 0 0 10.5 10.5Z"/>
  </symbol>

  <symbol id="icon-award" viewBox="0 0 24 24">
    <circle cx="12" cy="9" r="5"/>
    <path d="M8.5 13.5 7 21l5-2.5L17 21l-1.5-7.5"/>
  </symbol>

  <symbol id="icon-archive" viewBox="0 0 24 24">
    <rect x="3" y="4" width="18" height="4" rx="1"/>
    <path d="M4 8v11a1 1 0 0 0 1 1h14a1 1 0 0 0 1-1V8M10 12h4"/>
  </symbol>

  <symbol id="icon-note" viewBox="0 0 24 24">
    <path d="M6 3h9l5 5v13a1 1 0 0 1-1 1H6a1 1 0 0 1-1-1V4a1 1 0 0 1 1-1Z"/>
    <path d="M14 3v5h5M8 13h8M8 17h5"/>
  </symbol>

  <symbol id="icon-badge-check" viewBox="0 0 24 24">
    <path d="m9 12 2 2 4-4"/>
    <path d="M12 2.5 14.4 4l2.8-.4 1 2.6 2.6 1-.4 2.8 1.5 2.4-1.5 2.4.4 2.8-2.6 1-1 2.6-2.8-.4L12 21.5 9.6 20l-2.8.4-1-2.6-2.6-1 .4-2.8L2 12l1.5-2.4-.4-2.8 2.6-1 1-2.6 2.8.4Z"/>
  </symbol>

  <symbol id="icon-graduation-cap" viewBox="0 0 24 24">
    <path d="M22 10 12 5 2 10l10 5 10-5Z"/>
    <path d="M6 12v5c0 1.5 2.7 3 6 3s6-1.5 6-3v-5"/>
  </symbol>

  <symbol id="icon-hierarchy" viewBox="0 0 24 24">
    <rect x="9" y="3" width="6" height="4" rx="1"/>
    <rect x="3" y="17" width="6" height="4" rx="1"/>
    <rect x="15" y="17" width="6" height="4" rx="1"/>
    <path d="M12 7v5M12 12H6v5M12 12h6v5"/>
  </symbol>

  <symbol id="icon-grid" viewBox="0 0 24 24">
    <rect x="3" y="3" width="8" height="8" rx="1"/>
    <rect x="13" y="3" width="8" height="8" rx="1"/>
    <rect x="3" y="13" width="8" height="8" rx="1"/>
    <rect x="13" y="13" width="8" height="8" rx="1"/>
  </symbol>

</svg>
